<svg width="300" height="300" xmlns="http://www.w3.org/2000/svg">
 <title>heist-coverup</title>

 <g id="Layer_1">
  <title>Layer 1</title>
  <path stroke="#ffffff" id="svg_86" d="m53.84616,299.99998l96.15385,-180.34187l96.15385,180.34187l-192.3077,0z" stroke-width="0" fill="#fff"/>
  <path transform="rotate(180 259.402 220.513)" stroke="#ffffff" id="svg_88" d="m218.80342,299.99998l0,-158.97437l81.19658,158.97437l-81.19658,0z" stroke-width="0" fill="#fff"/>
  <path transform="rotate(180 40.5983 220.513)" stroke="#ffffff" id="svg_89" d="m81.19656,300.00001l0,-158.97437l-81.19656,158.97437l81.19656,0z" stroke-width="0" fill="#fff"/>
  <path stroke="#ffffff" id="svg_90" d="m0,119.65812l41.02564,-68.37607l41.02564,68.37607l-82.05128,0z" stroke-width="0" fill="#fff"/>
  <path stroke="#ffffff" id="svg_91" d="m217.94873,119.97644l41.02564,-68.37607l41.02564,68.37607l-82.05128,0z" stroke-width="0" fill="#fff"/>
  <path transform="rotate(180 151.34 48.7891)" filter="url(#svg_93_blur)" stroke="#ffffff" id="svg_93" d="m110.31394,82.97715l41.02564,-68.37607l41.02564,68.37607l-82.05128,0z" stroke-width="0" fill="#fff"/>
  <path transform="rotate(180 150 51.8351)" stroke="#ffffff" id="svg_94" d="m84.95475,103.67018l65.04525,-103.67019l65.04525,103.67019l-130.0905,0z" stroke-width="0" fill="#fff"/>
 </g>
</svg>