<svg width="300" height="300" xmlns="http://www.w3.org/2000/svg">
 <title>legal</title>

 <g id="Layer_1">
  <title>Layer 1</title>
  <path transform="rotate(180 151.34 48.7891)" filter="url(#svg_93_blur)" stroke="#ffffff" id="svg_93" d="m110.31394,82.97715l41.02564,-68.37607l41.02564,68.37607l-82.05128,0z" stroke-width="0" fill="#fff"/>
  <path transform="rotate(-0.0693517 149.9 217.078)" stroke="#ffffff" id="svg_108" d="m115.54496,299.95847l34.35473,-165.76186l34.35472,165.76186l-68.70944,0z" stroke-width="0" fill="#fff"/>
  <path id="svg_122" d="m34.01641,110.83721l0,-23.77049l231.96719,23.77049l-231.96719,0z" stroke-width="0" stroke="#ffffff" fill="#fff"/>
  <path stroke="#ffffff" id="svg_123" d="m265.73266,211.46606l0,-81.14753l-57.37706,81.14753l57.37706,0z" stroke-width="0" fill="#fff"/>
  <path stroke="#ffffff" id="svg_124" d="m35.89435,162.27753l0,-32.78688l27.04918,32.78688l-27.04918,0z" stroke-width="0" fill="#fff"/>
  <path transform="rotate(180 150 83.3782)" id="svg_126" d="m34.01641,95.26344l0,-23.77049l231.96718,23.77049l-231.96718,0z" stroke-width="0" stroke="#ffffff" fill="#fff"/>
  <path id="svg_127" d="m83.02547,57.25229l65.98361,-33.60655l65.98361,33.60655l-131.96721,0z" stroke-width="0" stroke="#ffffff" fill="#fff"/>
 </g>
</svg>