<svg width="300" height="300" xmlns="http://www.w3.org/2000/svg">
 <title>mystery</title>

 <g id="Layer_1">
  <title>Layer 1</title>
  <path transform="rotate(-135 90.818 230.651)" stroke="#ffffff" id="svg_68" d="m66.57497,304.48097l0,-147.65904l48.48599,147.65904l-48.48599,0z" stroke-width="0" fill="#fff"/>
  <path transform="rotate(-135 230.652 69.3472)" stroke="#ffffff" id="svg_69" d="m206.40906,143.17632l0,-147.65904l48.48598,147.65904l-48.48598,0z" stroke-width="0" fill="#fff"/>
  <path transform="rotate(45 212.078 69.3478)" stroke="#ffffff" id="svg_70" d="m187.83487,143.17735l0,-147.65904l48.48598,147.65904l-48.48598,0z" stroke-width="0" fill="#fff"/>
  <path transform="rotate(45 69.3476 230.652)" stroke="#ffffff" id="svg_71" d="m45.10452,304.48176l0,-147.65904l48.48598,147.65904l-48.48598,0z" stroke-width="0" fill="#fff"/>
  <path stroke="#ffffff" id="svg_75" d="m96.2382,145.32886l37.94356,-36.44553l37.94356,36.44553l-75.88712,0z" stroke-width="0" fill="#fff"/>
  <path transform="rotate(180 170.07 174.493)" stroke="#ffffff" id="svg_77" d="m132.1267,192.71562l37.94356,-36.44553l37.94356,36.44553l-75.88712,0z" stroke-width="0" fill="#fff"/>
 </g>
</svg>