<svg width="300" height="300" xmlns="http://www.w3.org/2000/svg">
 <title>philosophical</title>

 <g id="Layer_1">
  <title>Layer 1</title>
  <path fill="#fff" stroke-width="0" d="m110.31394,82.97715l41.02564,-68.37607l41.02564,68.37607l-82.05128,0z" id="svg_93" stroke="#ffffff" filter="url(#svg_93_blur)" transform="rotate(180 151.34 48.7891)"/>
  <path stroke="#ffffff" id="svg_1" d="m0.25572,57l149.74427,-57l149.74427,57l-299.48855,0z" stroke-width="0" fill="#fff"/>
  <path transform="rotate(180 150 95.5)" stroke="#ffffff" id="svg_2" d="m0.72084,124l149.27915,-57l149.27915,57l-298.55831,0z" stroke-width="0" fill="#fff"/>
  <path id="svg_4" d="m5.81353,91.86117l56.04712,20.6973l1.86047,171.1633" opacity="NaN" stroke-width="0" stroke="#ffffff" fill="#fff"/>
  <path stroke="#ffffff" id="svg_8" d="m298.93615,154.13263l0,-61.86064l-142.32599,61.86064l142.32599,0z" stroke-width="0" fill="#fff"/>
  <path stroke="#ffffff" id="svg_9" d="m71.00128,153.6024l0,-29.76753l75.81416,29.76753l-75.81416,0z" stroke-width="0" fill="#fff"/>
  <path id="svg_11" d="m70.72727,166l228.90909,-0.18182c0.18182,0.18182 -150,55.81818 -146.36364,52.18182" opacity="NaN" stroke-width="0" stroke="#ffffff" fill="#fff"/>
 </g>
</svg>