<svg width="300" height="300" xmlns="http://www.w3.org/2000/svg">
 <title>political</title>

 <g id="Layer_1">
  <title>Layer 1</title>
  <path transform="rotate(180 151.34 48.7891)" filter="url(#svg_93_blur)" stroke="#ffffff" id="svg_93" d="m110.31394,82.97715l41.02564,-68.37607l41.02564,68.37607l-82.05128,0z" stroke-width="0" fill="#fff"/>
  <path transform="rotate(-179.896 257.343 149.968)" stroke="#ffffff" id="svg_105" d="m214.79154,182.20733l42.55193,-64.47819l42.55193,64.47819l-85.10387,0z" stroke-width="0" fill="#fff"/>
  <path transform="rotate(-90 156.556 186.976)" stroke="#ffffff" id="svg_107" d="m114.00418,238.90026l42.55194,-103.84826l42.55193,103.84826l-85.10387,0z" stroke-width="0" fill="#fff"/>
  <path transform="rotate(-0.0693517 73.05 233.456)" stroke="#ffffff" id="svg_108" d="m30.49812,299.94854l42.55194,-132.98493l42.55193,132.98493l-85.10387,0z" stroke-width="0" fill="#fff"/>
  <path transform="rotate(-180 170.472 40.5512)" stroke="#ffffff" id="svg_110" d="m40.94489,81.10237l0,-81.10237l259.05512,81.10237l-259.05512,0z" stroke-width="0" fill="#fff"/>
  <path stroke="#ffffff" id="svg_111" d="m40.15749,102.36221l0,-81.10237l259.05512,81.10237l-259.05512,0z" stroke-width="0" fill="#fff"/>
  <path stroke="#ffffff" id="svg_121" d="m92.29211,193.76105l59.03256,25.62663l-48.38006,-0.53389" opacity="NaN" stroke-width="0" fill="#fff"/>
 </g>
</svg>